<svg data-v-0dd9719b="" version="1.0" xmlns="http://www.w3.org/2000/svg" xmlns:xlink="http://www.w3.org/1999/xlink" width="100%" height="100%" viewBox="0 0 340.000000 250.000000" preserveAspectRatio="xMidYMid meet" color-interpolation-filters="sRGB" style="margin: auto;"> <rect data-v-0dd9719b="" x="0" y="0" width="100%" height="100%" fill="#fff" fill-opacity="1" class="background"></rect> <rect data-v-0dd9719b="" x="0" y="0" width="100%" height="100%" fill="url(#watermark)" fill-opacity="1" class="watermarklayer"></rect> <g data-v-0dd9719b="" fill="#333" class="icon-text-wrapper icon-svg-group iconsvg" transform="translate(54.19499969482422,93.92375183105469)"><g class="iconsvg-imagesvg" transform="translate(0,3.717714309692383)"><g><rect fill="#333" fill-opacity="0" stroke-width="2" x="0" y="0" width="60" height="54.71706716519995" class="image-rect"></rect> <svg x="0" y="0" width="60" height="54.71706716519995" filtersec="colorsb3132486622" class="image-svg-svg primary" style="overflow: visible;"><svg xmlns="http://www.w3.org/2000/svg" viewBox="0.007376670837402344 0.017479896545410156 109.63544464111328 99.98246765136719"><g fill-rule="evenodd"><path d="M46.12 21.84c-2.94-8.25-7.27-15.43-1.06-17.59C53.49 1.3 60.41-3 62.64 3.15c3 8.39 7.23 15.37 1.06 17.6L52.39 24.8c-10.91 3.9-8.55 23-5.62 31.19C54.16 76.67 23 87.73 15.59 67.14A16.58 16.58 0 0 1 25.61 46c3.09 0 23.98-14.41 20.51-24.16z" fill="#104e70"></path><path d="M83.51 43C82 51 84.92 71.28 93.82 73c8.39 1.62 17 1.62 15.69 8-1.83 9.17-1.67 16.89-8 15.7-8.37-1.59-16.91-1.65-15.69-8l2.28-11.82c2.18-11.39-15.46-19.05-24-20.7A16.53 16.53 0 0 1 51 36.77C55.1 15.24 87.68 21.51 83.51 43z" fill="#2491eb"></path><path d="M25.67 89.11c-6.16 7.08-10 13.8-14.81 9.58-7-6.13-13.74-9.91-9.57-14.79 4.8-5.62 9.76-14 14.8-9.58l9.08 7.9c8.74 7.57 24.23-3.87 29.9-10.44a16.58 16.58 0 0 1 23.38-1.65c16.57 14.44-5.21 39.37-21.72 25 2.5.04-23.48-14.74-31.06-6.02z" fill="#85c4f5"></path></g></svg></svg> <!----></g></g> <g transform="translate(67,0)"><g data-gra="path-name" fill-rule="" class="tp-name iconsvg-namesvg" transform="translate(0,0)"><g transform="scale(1)"><g><path d="M11.25 0L4.32 3.19 0.63-4.91 11.25-9.81 11.25-19.57 3.46-19.57 3.46-28.04 11.25-28.04 11.25-38.34 18.27-38.34 18.27 5.98 11.25 5.98 11.25 0ZM33.48-1.84L34.65-8.46 40.99-7.29 38.56 5.98 22.23 5.98 22.23-38.34 28.98-38.34 28.98-25.29 35.59-30.51 40.59-24.16 28.98-14.98 28.98-1.84 33.48-1.84ZM80.69-35.59L80.69-28.66 44.37-28.66 44.37-35.59 57.96-35.59 57.96-38.7 66.28-38.7 66.28-35.59 80.69-35.59ZM73.75-9.67L82.26 1.03 76.59 5.54 67.81-5.54 72.94-9.67 66.56-9.67 66.56 6.34 55.75 6.34 55.75-1.4 59.67-1.4 59.67-9.67 52.52-9.67 57.55-5.31 48.1 5.58 42.66 0.85 51.8-9.67 47.79-9.67 47.79-26.28 77.17-26.28 77.17-9.67 73.75-9.67ZM70.52-16.06L70.52-19.66 54.45-19.66 54.45-16.06 70.52-16.06ZM122.58-24.84L116.28-10.39 124.52 3.92 118.44 7.42 112.77-2.43 108.5 7.38 102.28 4.68 103.14 2.7 85.41 6.34 83.66-1.98 87.25-2.75 87.25-25.43 92.56-25.43 92.56-3.82 94.59-4.23 94.59-28.57 86.17-28.57 86.17-36.63 103.5-36.63 103.5-28.57 100.53-28.57 100.53-20.88 101.7-20.88 108.58-39.78 115.11-37.39 113.49-32.98 122.63-32.98 122.63-24.84 122.58-24.84ZM112.05-17.68L115.2-24.84 110.52-24.84 109.53-22.05 112.05-17.68ZM104.63-0.67L108.58-9.67 105.34-15.3 102.96-16.16 102.96-12.6 100.53-12.6 100.53-5.44 103.5-6.08 104.63-0.67ZM141.62-39.24L149.44-39.24 149.44-36.27 163.35-36.27 163.35-29.34 153.85-29.34 153.85-24.93 157.72-28.48 165.24-20.25 160.38-15.79 153.85-22.86 153.85-14.54 145.53-14.54 145.53-21.42 147.96-21.42 147.96-29.34 145.26-29.34 141.48-13.9 143.24-13.41 142.47-10.8 149.72-10.8 149.72-14.17 156.24-14.17 156.24-10.8 164.3-10.8 164.3-3.87 156.24-3.87 156.24 5.71 149.72 5.71 149.72-3.87 140.44-3.87 137.29 6.84 130.77 4.91 133.38-3.87 126.9-3.87 126.9-10.8 135.41-10.8 136.4-14.17 135.54-14.4 139.19-29.34 127.71-29.34 127.71-36.27 141.62-36.27 141.62-39.24ZM130.91-15.43L126.14-18.9 132.79-28.17 137.61-24.75 130.91-15.43Z" transform="translate(-0.6299999952316284, 39.779998779296875)"></path></g> <!----> <!----> <!----> <!----> <!----> <!----> <!----></g></g> <g data-gra="path-slogan" fill-rule="" class="tp-slogan iconsvg-slogansvg" fill="#333" transform="translate(31.794998168945312,53.19999694824219)"><!----> <!----> <g transform="scale(1, 1)"><g transform="scale(1)"><path d="M4.13-7.64L2.06-7.64L2.06-4.97L4.13-4.97Q5.95-4.92 5.91-6.38L5.91-6.38Q5.91-7.64 4.13-7.64L4.13-7.64ZM4.59 0L0.89 0L0.89-8.58L4.69-8.58Q6.98-8.48 7.08-6.42L7.08-6.42Q7.08-5.16 5.95-4.64L5.95-4.64Q7.55-4.08 7.55-2.53L7.55-2.53Q7.41-0.09 4.59 0L4.59 0ZM4.31-3.98L2.06-3.98L2.06-0.98L4.55-0.98Q6.33-1.03 6.38-2.53L6.38-2.53Q6.38-3.98 4.31-3.98L4.31-3.98ZM10.17-1.03L15.33-1.03L15.33 0L9 0L9-8.58L15.23-8.58L15.23-7.59L10.17-7.59L10.17-4.92L14.86-4.92L14.86-3.89L10.17-3.89L10.17-1.03ZM17.02-8.58L18.19-8.58L18.19 0L17.02 0L17.02-8.58ZM19.45-1.92L19.45-2.77L20.53-2.77L20.53-2.16Q20.53-0.75 21.84-0.75L21.84-0.75Q23.20-0.75 23.20-2.25L23.20-2.25L23.20-8.58L24.38-8.58L24.38-2.30Q24.33 0.09 21.89 0.14L21.89 0.14Q19.59 0.09 19.45-1.92L19.45-1.92ZM26.34-8.58L27.52-8.58L27.52 0L26.34 0L26.34-8.58ZM30.89-8.58L35.20-1.64L35.20-8.58L36.33-8.58L36.33 0L35.02 0L30.66-6.94L30.61-6.94L30.61 0L29.48 0L29.48-8.58L30.89-8.58ZM44.53-3.61L41.91-3.61L41.91-4.59L45.66-4.59L45.66 0L44.91 0L44.63-1.08Q43.64 0.09 41.81 0.14L41.81 0.14Q40.08 0.14 39.14-0.75L39.14-0.75Q37.73-2.06 37.78-4.36L37.78-4.36Q38.11-8.63 41.86-8.81L41.86-8.81Q45.05-8.63 45.52-6L45.52-6L44.39-6Q43.92-7.78 41.81-7.83L41.81-7.83Q39.14-7.64 39-4.31L39-4.31Q39-0.75 41.86-0.75L41.86-0.75Q42.89-0.75 43.64-1.31L43.64-1.31Q44.58-2.06 44.53-3.61L44.53-3.61ZM51.61-1.03L56.91-1.03L56.91 0L50.16 0L50.16-0.94L55.41-7.59L50.53-7.59L50.53-8.58L56.91-8.58L56.91-7.59L51.61-1.03ZM59.20-5.06L63.70-5.06L63.70-8.58L64.88-8.58L64.88 0L63.70 0L63.70-3.98L59.20-3.98L59.20 0L58.03 0L58.03-8.58L59.20-8.58L59.20-5.06ZM67.97-1.03L73.13-1.03L73.13 0L66.80 0L66.80-8.58L73.03-8.58L73.03-7.59L67.97-7.59L67.97-4.92L72.66-4.92L72.66-3.89L67.97-3.89L67.97-1.03ZM76.03-8.58L80.34-1.64L80.34-8.58L81.47-8.58L81.47 0L80.16 0L75.80-6.94L75.75-6.94L75.75 0L74.63 0L74.63-8.58L76.03-8.58ZM89.67-3.61L87.05-3.61L87.05-4.59L90.80-4.59L90.80 0L90.05 0L89.77-1.08Q88.78 0.09 86.95 0.14L86.95 0.14Q85.22 0.14 84.28-0.75L84.28-0.75Q82.88-2.06 82.92-4.36L82.92-4.36Q83.25-8.63 87-8.81L87-8.81Q90.19-8.63 90.66-6L90.66-6L89.53-6Q89.06-7.78 86.95-7.83L86.95-7.83Q84.28-7.64 84.14-4.31L84.14-4.31Q84.14-0.75 87-0.75L87-0.75Q88.03-0.75 88.78-1.31L88.78-1.31Q89.72-2.06 89.67-3.61L89.67-3.61ZM99.52-8.58L96.28-3.47L96.28 0L95.11 0L95.11-3.47L91.88-8.58L93.23-8.58L95.67-4.45L98.16-8.58L99.52-8.58ZM100.73-8.58L101.91-8.58L101.91 0L100.73 0L100.73-8.58Z" transform="translate(-0.890625, 8.8125)"></path></g></g></g></g></g><defs v-gra="od"></defs></svg>